<?xml version="1.0" encoding="iso-8859-1"?>
<svg xmlns="http://www.w3.org/2000/svg" width="512" height="512" viewBox="0 0 512 512">
    <path d="M32 464V48c0-9 7-16 16-16h240v64c0 18 14 32 32 32h64v48h32v-64c0-4-2-8-5-11l-96-96C312 2 308 0 304 0H48C21 0 0 21 0 48v416c0 27 21 48 48 48h112v-32H48C39 480 32 473 32 464z"/>
    <path d="M480 320h-32v32h32v32h-64v-96h96c0-18-14-32-32-32h-64c-18 0-32 14-32 32v96c0 18 14 32 32 32h64c18 0 32-14 32-32v-32C512 334 498 320 480 320z"/>
    <path d="M304 256c-35 0-64 29-64 64v32c0 35 29 64 64 64c35 0 64-29 64-64v-32C368 285 339 256 304 256zM336 352c0 18-14 32-32 32c-18 0-32-14-32-32v-32c0-18 14-32 32-32c18 0 32 14 32 32V352z"/>
    <path d="M160 256h-32v144c0 9 7 16 16 16h80v-32h-64V256z"/>
</svg>
