<svg xmlns="http://www.w3.org/2000/svg" width="128" height="128" viewBox="0 0 128 128">
    <path d="M82 6H17v64h12V17h48l22 23v30h12V35L82 6ZM3 121V76h10v37h20v8H3Zm54-46c8 0 13 2 17 7 3 4 5 10 5 16 0 8-2 14-6 18a21 21 0 0 1-16 6c-7 0-12-2-16-7s-6-11-6-17c0-7 3-13 7-17s9-6 15-6Zm0 8c-3 0-6 2-8 4-2 3-3 7-3 11 0 5 1 9 3 12s5 4 8 4c4 0 7-2 9-4 2-3 3-7 3-12 0-4-1-8-3-11-3-3-5-4-9-4Zm68 13v23l-5 2-11 1c-7 0-13-2-17-6a23 23 0 0 1-7-17c0-9 3-15 8-19 4-4 10-5 16-5s11 1 16 3l-3 8-6-2-6-1c-5 0-9 2-11 5s-3 6-3 10c0 6 1 10 4 13l9 3 6-1v-9h-7v-8h17Z"/>
</svg>
